# xmcd
#
# Track frame offsets: 
#        182
#        30237
#        41622
#        60017
#        88080
#        114990
#        130692
#        167782
#        174045
#        188877
#        199562
#        215910
#
# Disc length: 3055 seconds
#
# Revision: 0
# Processed by: cddbd v1.5.2PL0 Copyright (c) Steve Scherf et al.
# Submitted via: ExactAudioCopy v0.95b4
#
DISCID=920bed0c
DTITLE=Johnny Shines - 1995 - 1992
DYEAR=1900
DGENRE=Blues
TTITLE0=Won't You Tell Me Mama
TTITLE1=Goin' Down In The Bottom
TTITLE2=Bumble Bee Blues
TTITLE3=Workin' On The Station
TTITLE4=Moanin' The Blues
TTITLE5=Talkin'
TTITLE6=Just A Little Tenderness
TTITLE7=Guitar Boogie
TTITLE8=Worried Life Blues
TTITLE9=Fat Mama
TTITLE10=High Road Blues
TTITLE11=Hello Central
EXTD=
EXTT0=
EXTT1=
EXTT2=
EXTT3=
EXTT4=
EXTT5=
EXTT6=
EXTT7=
EXTT8=
EXTT9=
EXTT10=
EXTT11=
PLAYORDER=
